<?xml version="1.0" encoding="utf-8"?>
<!-- Generator: Adobe Illustrator 22.1.0, SVG Export Plug-In . SVG Version: 6.00 Build 0)  -->
<svg version="1.1" id="Layer_1" xmlns="http://www.w3.org/2000/svg" xmlns:xlink="http://www.w3.org/1999/xlink" x="0px" y="0px"
	 viewBox="0 0 479.1 77.5" style="enable-background:new 0 0 479.1 77.5;" xml:space="preserve">
<style type="text/css">
	.st0{fill:#0A9247;}
	.st1{fill:#F0BE1A;}
	.st2{fill:#78B851;}
</style>
<title>Multicolored Zenwork logo</title>
<path class="st0" d="M297.4,77.3l-17.9-11.5c-5.2-3.6-10.5-6.9-15.7-10.3c-1-0.6-1.3-1.4-1.3-3V38.2c0-0.8-0.4-1.9,0.6-2.3
	c0.1,0.6,0.6,1.1,1.1,1.4c1.8,1.3,3.8,2.5,5.8,3.6c2.3,1.6,4.7,3.1,7.2,4.3c0.4,0.8,1,0.9,1.5,1.2l18.8,12.5l0.3,1v16.6L297.4,77.3z
	"/>
<path class="st1" d="M297.6,76.6V59l20.3-13.3l14.3-9.6c0.4,0.4,0.3,1,0.3,1.6v15.4c0.1,0.8-0.2,1.6-0.8,2.2l-34.1,22.2l0,0
	C297.6,77.2,297.6,76.9,297.6,76.6z"/>
<path class="st2" d="M277.1,45.3c-2.5-1.2-4.9-2.7-7.1-4.3c-1.9-1.1-3.8-2.4-5.8-3.6c-0.6-0.2-1.1-0.8-1.2-1.4l19.3-12.8l13.7-8.9
	c0.5-0.4,1-0.9,1.6-0.8v7.7c0.2,3.6,0.1,7.2-0.3,10.8L277.1,45.3z"/>
<path class="st0" d="M297.4,31.9c0.3-3.6,0.4-7.2,0.3-10.8v-7.8c5,2.8,10,6.4,14.9,9.6c6.6,4.3,13.2,8.7,19.7,13.1L318,45.7
	c-0.2-0.3-0.4-0.7-0.6-0.9L297.4,31.9z"/>
<path class="st0" d="M297.6,76.6v0.8l0,0V76.6z"/>
<path class="st0" d="M297.4,59c0.1-0.1,0.2-0.1,0.3,0v1L297.4,59z"/>
<path class="st0" d="M48.6,62.5v11H0v-7.8l31-44.5H0V10.1h48v7.6L17.3,62.5H48.6z"/>
<path class="st0" d="M105.6,62.5v11H62.8V10.1h42.8v11.1H76.5v14.3h24.8v10.8H76.5v16.2H105.6z"/>
<path class="st0" d="M157.5,73.6l-24.6-40.9v40.9h-13.7V10.1h13.7L157.5,51V10.1h13.7v63.5H157.5z"/>
<path class="st0" d="M259.6,10.1l-13.9,63.5h-13.9L222,32.3l-9.8,41.2h-13.9l-13.9-63.4H198l8.3,44.1l10-44.1h11.6l10,44.1l8.2-44.1
	H259.6z"/>
<path class="st0" d="M390.3,72.9v0.7h-14.6l-11.7-23h-9.9v23h-13.7V10.1h24c4.3-0.1,8.6,0.6,12.7,2.2c3.3,1.3,6.1,3.6,8.1,6.5
	c1.9,3.1,2.9,6.8,2.7,10.5c0.2,3.9-0.8,7.7-2.9,11.1c-2.1,3-5,5.3-8.4,6.8L390.3,72.9z M354.2,39.5h10.3c2.7,0.2,5.4-0.7,7.4-2.5
	c1.8-1.8,2.7-4.2,2.5-6.7c0.1-2.5-0.8-5-2.5-6.8c-2.1-1.8-4.8-2.6-7.5-2.4h-10.3V39.5z"/>
<path class="st0" d="M424.4,48.6l-6.7,7.2v17.7H404V10.1h13.7v28.5l5.5-8L438.7,10h16.8l-22.2,28.3l22.6,35.3h-16.2L424.4,48.6z"/>
<path class="st0" d="M470.6,0c-4.7,0.1-8.5,3.9-8.5,8.7c0,0,0,0,0,0v0.1l0,0c-0.3,4.7,3.3,8.7,7.9,9.1c4.7,0.3,8.7-3.3,9.1-7.9
	c0-0.4,0-0.7,0-1.1c0.1-4.7-3.7-8.6-8.4-8.7c0,0,0,0,0,0H470.6L470.6,0z M470.6,16.4c-4.1-0.1-7.3-3.4-7.2-7.3
	c-0.3-3.9,2.7-7.4,6.7-7.6c4-0.3,7.5,2.7,7.8,6.6l0,0c0,0.3,0,0.7,0,1C477.9,13.1,474.7,16.3,470.6,16.4z"/>
<path class="st0" d="M474.1,13.1h-2l-1.6-3.2h-1.4v3.2h-1.9V4.3h3.3c0.6,0,1.2,0.1,1.8,0.3c0.5,0.2,0.8,0.5,1.1,0.9
	c0.2,0.5,0.4,1,0.3,1.5c0,0.5-0.1,1.1-0.4,1.5c-0.3,0.4-0.7,0.8-1.2,0.9L474.1,13.1z M469.1,8.4h1.4c0.4,0,0.7-0.1,1-0.4
	c0.3-0.2,0.4-0.6,0.4-0.9c0-0.4-0.1-0.7-0.4-0.9c-0.3-0.3-0.6-0.4-1-0.3h-1.4V8.4z"/>
</svg>
